<svg width="14" height="16" viewBox="0 0 14 16" fill="none" xmlns="http://www.w3.org/2000/svg">
<path d="M13.0672 7.19268C13.0091 7.25079 12.9402 7.29689 12.8643 7.32834C12.7884 7.35979 12.7071 7.37598 12.625 7.37598C12.5428 7.37598 12.4615 7.35979 12.3856 7.32834C12.3098 7.29689 12.2408 7.25079 12.1828 7.19268L7.62498 2.63409V14.8755C7.62498 15.0413 7.55913 15.2002 7.44192 15.3174C7.32471 15.4346 7.16574 15.5005 6.99998 15.5005C6.83422 15.5005 6.67525 15.4346 6.55804 15.3174C6.44083 15.2002 6.37498 15.0413 6.37498 14.8755V2.63409L1.81717 7.19268C1.69989 7.30996 1.54083 7.37584 1.37498 7.37584C1.20913 7.37584 1.05007 7.30996 0.932794 7.19268C0.815518 7.0754 0.749634 6.91634 0.749634 6.75049C0.749634 6.58464 0.815518 6.42558 0.932794 6.3083L6.55779 0.683304C6.61584 0.625194 6.68477 0.579095 6.76064 0.547642C6.83652 0.516189 6.91785 0.5 6.99998 0.5C7.08212 0.5 7.16344 0.516189 7.23932 0.547642C7.31519 0.579095 7.38412 0.625194 7.44217 0.683304L13.0672 6.3083C13.1253 6.36635 13.1714 6.43528 13.2028 6.51115C13.2343 6.58703 13.2505 6.66836 13.2505 6.75049C13.2505 6.83263 13.2343 6.91396 13.2028 6.98983C13.1714 7.0657 13.1253 7.13463 13.0672 7.19268Z" fill="#8990A9"/>
</svg>
