<svg width="14" height="16" viewBox="0 0 14 16" fill="none" xmlns="http://www.w3.org/2000/svg">
<path d="M13.0672 6.85674C13.0091 6.91485 12.9402 6.96095 12.8643 6.9924C12.7884 7.02386 12.7071 7.04005 12.625 7.04005C12.5428 7.04005 12.4615 7.02386 12.3856 6.9924C12.3098 6.96095 12.2408 6.91485 12.1828 6.85674L7.62498 2.29815V14.5396C7.62498 14.7053 7.55913 14.8643 7.44192 14.9815C7.32471 15.0987 7.16574 15.1646 6.99998 15.1646C6.83422 15.1646 6.67525 15.0987 6.55804 14.9815C6.44083 14.8643 6.37498 14.7053 6.37498 14.5396V2.29815L1.81717 6.85674C1.69989 6.97402 1.54083 7.0399 1.37498 7.0399C1.20913 7.0399 1.05007 6.97402 0.932794 6.85674C0.815518 6.73947 0.749634 6.58041 0.749634 6.41456C0.749634 6.2487 0.815518 6.08964 0.932794 5.97237L6.55779 0.347367C6.61584 0.289256 6.68477 0.243157 6.76064 0.211704C6.83652 0.180252 6.91785 0.164063 6.99998 0.164062C7.08212 0.164063 7.16344 0.180252 7.23932 0.211704C7.31519 0.243157 7.38412 0.289256 7.44217 0.347367L13.0672 5.97237C13.1253 6.03041 13.1714 6.09934 13.2028 6.17522C13.2343 6.25109 13.2505 6.33242 13.2505 6.41456C13.2505 6.49669 13.2343 6.57802 13.2028 6.65389C13.1714 6.72977 13.1253 6.7987 13.0672 6.85674Z" fill="white"/>
</svg>
